<?xml version="1.0" encoding="UTF-8"?>
<svg id="Layer_1" data-name="Layer 1" xmlns="http://www.w3.org/2000/svg" xmlns:xlink="http://www.w3.org/1999/xlink" viewBox="0 0 498.98 208">
  <defs>
    <style>
      .cls-1 {
        fill: url(#linear-gradient);
      }

      .cls-1, .cls-2, .cls-3 {
        stroke-width: 0px;
      }

      .cls-2 {
        fill: url(#linear-gradient-2);
      }
    </style>
    <linearGradient id="linear-gradient" x1="85.89" y1="216.95" x2="85.89" y2="-2.36" gradientUnits="userSpaceOnUse">
      <stop offset="0" stop-color="#00b1ff"/>
      <stop offset="1" stop-color="#001a99"/>
    </linearGradient>
    <linearGradient id="linear-gradient-2" x1="109.73" y1="216.95" x2="109.73" y2="-2.36" xlink:href="#linear-gradient"/>
  </defs>
  <g>
    <g>
      <path class="cls-3" d="m295.75,148.77l-.09-41.69-20.66,34.5h-5.21l-20.66-33.96v41.15h-11.14v-62.89h9.61l24.98,41.69,24.53-41.69h9.61l.09,62.89h-11.05Z"/>
      <path class="cls-3" d="m319.2,117.33c0-18.78,14.37-32.34,33.69-32.34,10.24,0,19.05,3.68,24.89,10.51l-7.55,7.1c-4.58-4.94-10.24-7.37-16.8-7.37-13.03,0-22.46,9.16-22.46,22.1s9.43,22.1,22.46,22.1c6.56,0,12.22-2.43,16.8-7.46l7.55,7.19c-5.84,6.83-14.64,10.51-24.98,10.51-19.23,0-33.6-13.57-33.6-32.34Z"/>
      <path class="cls-3" d="m388.11,85.88h11.68v53.01h32.88v9.88h-44.56v-62.89Z"/>
      <path class="cls-3" d="m498.98,131.7c0,10.78-8.44,17.07-24.62,17.07h-31.27v-62.89h29.47c15.09,0,23.18,6.38,23.18,16.35,0,6.47-3.23,11.23-8.09,13.84,6.74,2.16,11.32,7.46,11.32,15.63Zm-44.2-36.65v17.34h16.53c8.09,0,12.67-2.87,12.67-8.62s-4.58-8.71-12.67-8.71h-16.53Zm32.43,35.49c0-6.29-4.76-9.07-13.57-9.07h-18.87v18.15h18.87c8.8,0,13.57-2.79,13.57-9.07Z"/>
    </g>
    <g>
      <path class="cls-3" d="m249.23,182.98l-.02-8.28-4.1,6.85h-1.03l-4.1-6.74v8.17h-2.21v-12.48h1.91l4.96,8.28,4.87-8.28h1.91l.02,12.48h-2.19Z"/>
      <path class="cls-3" d="m260.71,170.49h2.32v12.48h-2.32v-12.48Z"/>
      <path class="cls-3" d="m272.28,170.49h2.32v10.52h6.53v1.96h-8.85v-12.48Z"/>
      <path class="cls-3" d="m288.83,170.49h2.32v10.52h6.53v1.96h-8.85v-12.48Z"/>
      <path class="cls-3" d="m314.75,181.04v1.94h-9.36v-12.48h9.11v1.94h-6.8v3.25h6.03v1.91h-6.03v3.44h7.05Z"/>
      <path class="cls-3" d="m334.34,170.49v12.48h-1.91l-6.88-8.45v8.45h-2.3v-12.48h1.91l6.88,8.45v-8.45h2.3Z"/>
      <path class="cls-3" d="m354.71,170.49v12.48h-1.91l-6.88-8.45v8.45h-2.3v-12.48h1.91l6.88,8.45v-8.45h2.3Z"/>
      <path class="cls-3" d="m363.98,170.49h2.32v12.48h-2.32v-12.48Z"/>
      <path class="cls-3" d="m375.47,177.54v-7.05h2.32v6.96c0,2.57,1.16,3.67,3.17,3.67s3.16-1.11,3.16-3.67v-6.96h2.28v7.05c0,3.64-2.05,5.62-5.46,5.62s-5.48-1.98-5.48-5.62Z"/>
      <path class="cls-3" d="m407.04,182.98l-.02-8.28-4.1,6.85h-1.03l-4.1-6.74v8.17h-2.21v-12.48h1.91l4.96,8.28,4.87-8.28h1.91l.02,12.48h-2.19Z"/>
      <path class="cls-3" d="m428.77,176.74c0-3.73,2.85-6.42,6.69-6.42,2.03,0,3.78.73,4.94,2.09l-1.5,1.41c-.91-.98-2.03-1.46-3.33-1.46-2.59,0-4.46,1.82-4.46,4.39s1.87,4.39,4.46,4.39c1.3,0,2.43-.48,3.33-1.48l1.5,1.43c-1.16,1.36-2.91,2.09-4.96,2.09-3.82,0-6.67-2.69-6.67-6.42Z"/>
      <path class="cls-3" d="m448.46,170.49h2.32v10.52h6.53v1.96h-8.85v-12.48Z"/>
      <path class="cls-3" d="m464.61,177.54v-7.05h2.32v6.96c0,2.57,1.16,3.67,3.17,3.67s3.16-1.11,3.16-3.67v-6.96h2.28v7.05c0,3.64-2.05,5.62-5.46,5.62s-5.48-1.98-5.48-5.62Z"/>
      <path class="cls-3" d="m495.81,179.59c0,2.14-1.68,3.39-4.89,3.39h-6.21v-12.48h5.85c3,0,4.6,1.27,4.6,3.25,0,1.28-.64,2.23-1.61,2.75,1.34.43,2.25,1.48,2.25,3.1Zm-8.77-7.28v3.44h3.28c1.61,0,2.52-.57,2.52-1.71s-.91-1.73-2.52-1.73h-3.28Zm6.44,7.05c0-1.25-.95-1.8-2.69-1.8h-3.75v3.6h3.75c1.75,0,2.69-.55,2.69-1.8Z"/>
    </g>
  </g>
  <g>
    <path class="cls-1" d="m86.09,168l-50.87-41.26c2.28-6.55,5.77-12.53,10.22-17.67l40.56,32.89,85.38-68.7v-12.03l-43.57,35.06c-11.52-9.93-26.07-15.36-41.41-15.36s-30.44,5.88-41.59,15.56L0,60.14v12.07l38.15,30.94c-4.41,5.14-8.01,10.99-10.61,17.36L1.01,99v107.3h9.38v-87.63l14.11,11.45c-1.07,4.61-1.65,9.41-1.65,14.34,0,35.04,28.51,63.54,63.54,63.54,17.62,0,34-7.04,46.12-19.84l-6.8-6.45c-10.34,10.9-24.3,16.91-39.32,16.91-29.87,0-54.17-24.3-54.17-54.17,0-2.59.19-5.14.55-7.63l53.29,43.22,76.34-61.43v87.68h9.38v-107.26l-85.69,68.95Zm.31-77.71c12.49,0,24.37,4.22,33.97,11.97l-34.35,27.64-33.81-27.42c9.33-7.61,21.24-12.19,34.19-12.19Z"/>
    <path class="cls-2" d="m122,84.73l3.24-8.28c-6.02-3.54-12.46-6.21-19.13-7.97l5.31-25.86,14.53,15.79-11.28-23.37,28.57-7.77-28.47-.38,1.25-26.88-8.33,26.06-24.27-9.82,20.31,16.05-17.41,16.3,16.95-7.48-5.27,25.67c-7.17-1.08-14.51-1.13-21.79-.12v8.86c15.87-2.49,32.12.77,45.77,9.2Z"/>
  </g>
</svg>